<?xml version="1.0" encoding="UTF-8"?>
<!DOCTYPE svg PUBLIC "-//W3C//DTD SVG 1.1//EN" "http://www.w3.org/Graphics/SVG/1.1/DTD/svg11.dtd">
<!-- Creator: CorelDRAW 2020 (64-Bit) -->
<svg xmlns="http://www.w3.org/2000/svg" xml:space="preserve" width="100%" height="100%" version="1.1" style="shape-rendering:geometricPrecision; text-rendering:geometricPrecision; image-rendering:optimizeQuality; fill-rule:evenodd; clip-rule:evenodd"
viewBox="0 0 6000 5000"
 xmlns:xlink="http://www.w3.org/1999/xlink"
 xmlns:xodm="http://www.corel.com/coreldraw/odm/2003">
 <defs>
  <style type="text/css">
   <![CDATA[
    .fil0 {fill:#212121}
   ]]>
  </style>
 </defs>
 <g id="Слой_x0020_1">
  <metadata id="CorelCorpID_0Corel-Layer"/>
  <path class="fil0" d="M-0 5000l6000 0 0 -5000 -6000 0 0 5000zm238.3 -242.82l5545.7 0 -22.29 0 0.11 -4519.38 -5569.82 0 46.18 0 0.12 4519.38zm361.41 -360.79l4800.28 0 0.25 -3800.8 -4776.24 0 -24.24 0 -0.05 3800.8zm232.99 -1654.58c52.68,-8.88 280.35,-298.58 318.85,-343.33l775.95 -894.37c66.25,-78.98 150.76,-103.04 220.49,-7.64 81.58,111.64 1067.17,1508.08 1128.02,1562.82 134.22,-41.8 850.36,-430.04 913.05,-436.14 64.75,-6.29 840.2,321.79 978.25,365.07l0 -2155.21 -4334.61 0 0 1908.8zm0.22 1421.98l4334.23 0.77 -0.07 -919.98c-165.81,-78.54 -535.58,-216.31 -740.42,-298.66 -60.33,-24.24 -194.93,-95.35 -251.02,-74.57 -137.84,51.13 -853.86,454.22 -945.15,448.32 -84.06,-5.43 -135.64,-108.85 -175.86,-167.02l-726.24 -1014.8c-51.68,-72.89 -95.08,-131.18 -144.73,-200.92 -41.04,-57.66 -107.29,-173.07 -157.61,-202.31l-418.5 485.87c-237.23,271.13 -499.32,588.68 -737.27,849.86 -54.42,59.76 -37.59,79.7 -37.37,183.79 0.61,303.19 0.01,606.45 0.01,909.65zm3021.73 -2836.39c-609.78,143.58 -401.14,1034.04 200.5,917.36 231.59,-44.92 430.51,-276.72 370.08,-567.61 -45.09,-217.05 -288.1,-416.28 -570.58,-349.75zm44 223.19c-301.2,78.81 -194.77,552.67 129.16,464.47 298.29,-81.21 186.16,-547 -129.16,-464.47z"/>
 </g>
</svg>
