<?xml version="1.0" encoding="UTF-8"?>
<!DOCTYPE svg PUBLIC "-//W3C//DTD SVG 1.1//EN" "http://www.w3.org/Graphics/SVG/1.1/DTD/svg11.dtd">
<!-- Creator: CorelDRAW 2020 (64-Bit) -->
<svg xmlns="http://www.w3.org/2000/svg" xml:space="preserve" width="100%" height="100%" version="1.1" style="shape-rendering:geometricPrecision; text-rendering:geometricPrecision; image-rendering:optimizeQuality; fill-rule:evenodd; clip-rule:evenodd"
viewBox="0 0 6261.3 5000"
 xmlns:xlink="http://www.w3.org/1999/xlink"
 xmlns:xodm="http://www.corel.com/coreldraw/odm/2003">
 <defs>
  <style type="text/css">
   <![CDATA[
    .fil0 {fill:#212121}
   ]]>
  </style>
 </defs>
 <g id="Слой_x0020_1">
  <metadata id="CorelCorpID_0Corel-Layer"/>
  <path class="fil0" d="M2628.8 4990.73l0.3 -1494.56 988.83 0 4.5 1494.56c331.02,0 662.17,0 993.33,0 932.53,0 749.47,135.11 749.47,-1742.95 0,-81.45 -0.52,-162.93 0.41,-244.38 2.12,-184.78 -4.35,-151.97 -130.18,-253.54 -26.93,-21.73 -35.18,-33.21 -65.25,-56.45 -45.97,-35.55 -89.31,-71.14 -134.49,-109.72l-1910.22 -1575.64c-20.01,21.48 -95.5,82.43 -132.62,111.29 -461.6,358.85 -1033.89,854.78 -1500.27,1236.18l-401.8 330.29c-250.07,204.33 -204.96,103.01 -204.96,544.54 0,428.35 -19.46,1133.02 0.51,1499.79 18.83,345.71 400.48,260.59 731.53,260.59 336.97,0 673.94,0 1010.91,0zm513.11 -4328.29c28.86,58.8 304.19,272.73 360.53,317.27l2272.21 1893.52c156.87,145.89 234.08,10.6 391.64,-183.64 163.62,-201.72 108.76,-222.74 -109.7,-394.89l-571.65 -473.78c-94.35,-79.69 -122.34,-61.5 -120.42,-228.27l1.39 -1378.35c-0.27,-259.23 -100.55,-204.03 -488.7,-204.03 -113.92,0 -236.33,-4.44 -349.07,-0.71 -298.57,9.87 -79.96,421.64 -163.89,877.74 -23.55,-27.19 -62.88,-50.03 -105.48,-88.42l-810.19 -671.85c-91.54,-68.78 -148.35,-119.26 -296.31,-126.42 -209.14,-10.13 -334.99,107.93 -504.04,251.37l-2610.4 2165.73c-165.62,150.78 266.32,506.87 266.62,506.97 61.11,22.53 114.74,-4.34 153.6,-34.93l1159.12 -967.43c51.39,-44.29 76.1,-61.92 113.69,-95.44l399.82 -332.24c27.01,-22.24 34.63,-33.76 64.48,-57.33l896.46 -742.69c3.64,-2.58 7.69,-5.59 11.35,-8.09l38.94 -24.09z"/>
 </g>
</svg>
