<?xml version="1.0" encoding="UTF-8"?>
<!DOCTYPE svg PUBLIC "-//W3C//DTD SVG 1.1//EN" "http://www.w3.org/Graphics/SVG/1.1/DTD/svg11.dtd">
<!-- Creator: CorelDRAW 2020 (64-Bit) -->
<svg xmlns="http://www.w3.org/2000/svg" xml:space="preserve" width="100%" height="100%" version="1.1" style="shape-rendering:geometricPrecision; text-rendering:geometricPrecision; image-rendering:optimizeQuality; fill-rule:evenodd; clip-rule:evenodd"
viewBox="0 0 5012.72 5000"
 xmlns:xlink="http://www.w3.org/1999/xlink"
 xmlns:xodm="http://www.corel.com/coreldraw/odm/2003">
 <defs>
  <style type="text/css">
   <![CDATA[
    .fil0 {fill:#212121}
   ]]>
  </style>
 </defs>
 <g id="Слой_x0020_1">
  <metadata id="CorelCorpID_0Corel-Layer"/>
  <path class="fil0" d="M-0 527.63c191.11,263.59 1833.44,1770.9 1943.75,1981.01 -113.49,226.56 -1829.58,1771.85 -1926.63,1976.8l512.4 514.56c236.88,-136.16 1739.11,-1798.15 1978.41,-1925.7 217.55,107.5 1760.45,1804.16 1976.8,1922.86l517.59 -508.93c-131.24,-239.85 -1820.29,-1755.35 -1930.54,-1979.59 67.01,-129.27 799.52,-825.78 963.25,-988.62l977.69 -988.18 -524.53 -531.84 -974.86 968.35c-169.56,170.58 -865.63,907.24 -1005.4,977.99 -143.22,-70.19 -821.21,-791.67 -991.94,-961.59 -330.78,-329.21 -647.9,-668.58 -984.85,-980.75l-531.14 523.63z"/>
 </g>
</svg>
